<svg width="48" height="48" viewBox="0 0 48 48" fill="none" xmlns="http://www.w3.org/2000/svg">
<path d="M45 9C45 9.55229 45.4477 10 46 10H47C47.5523 10 48 9.55229 48 9C48 8.44772 47.5523 8 47 8H46C45.4477 8 45 8.44772 45 9Z" fill="#161616"/>
<path d="M16 40H20.8578L19.4436 38.5858C19.0686 38.2107 18.5598 38 18.0294 38H16C8.268 38 2 31.732 2 24C2 16.268 8.268 10 16 10H32C39.732 10 46 16.268 46 24C46 31.732 39.732 38 32 38H26.0147C25.219 38 24.456 37.6839 23.8934 37.1214L22.2366 35.4645C21.2989 34.5268 20.027 34 18.701 34H16C10.4771 34 6 29.5229 6 24C6 18.4771 10.4771 14 16 14H32C37.5229 14 42 18.4771 42 24C42 29.5229 37.5229 34 32 34H28.1569C27.3612 34 26.5982 33.6839 26.0355 33.1214L24.3786 31.4645C23.441 30.5268 22.1692 30 20.8431 30H16C12.6863 30 10 27.3137 10 24C10 20.6863 12.6863 18 16 18H32C35.3137 18 38 20.6863 38 24C38 27.2733 35.3788 29.9344 32.121 29.9988L32.1203 30H30.6569C29.8612 30 29.0982 29.6839 28.5355 29.1214L26.8786 27.4645C26.1093 26.695 25.115 26.2023 24.0502 26.0502L24 26H16C14.8954 26 14 25.1046 14 24C14 22.8954 14.8954 22 16 22H32C33.1046 22 34 22.8954 34 24C34 25.1046 33.1046 26 32 26H28L29.4142 27.4142C29.7893 27.7893 30.298 28 30.8284 28H32C34.2091 28 36 26.2091 36 24C36 21.7909 34.2091 20 32 20H16C13.7909 20 12 21.7909 12 24C12 26.2091 13.7909 28 16 28H23.3431C24.1388 28 24.9018 28.3161 25.4645 28.8786L27.1214 30.5355C28.059 31.4732 29.3308 32 30.6569 32H32.5V31.9846C36.6854 31.7266 40 28.2503 40 24C40 19.5818 36.4182 16 32 16H16C11.5818 16 8 19.5818 8 24C8 28.4183 11.5818 32 16 32H20.8431C21.6388 32 22.4018 32.3161 22.9645 32.8786L24.6214 34.5355C25.559 35.4732 26.8308 36 28.1569 36H32C38.6274 36 44 30.6274 44 24C44 17.3726 38.6274 12 32 12H16C9.37256 12 4 17.3726 4 24C4 30.6274 9.37256 36 16 36H18.701C19.4966 36 20.2597 36.3161 20.8223 36.8786L22.4792 38.5355C23.4169 39.4732 24.6886 40 26.0147 40H32C40.8366 40 48 32.8366 48 24C48 15.1634 40.8366 8 32 8L16 8C7.16344 8 -7.72516e-07 15.1634 0 24C7.72516e-07 32.8366 7.16345 40 16 40Z" fill="#161616"/>
</svg>
