<svg width="20" height="20" viewBox="0 0 20 20" fill="none" xmlns="http://www.w3.org/2000/svg">
<path d="M5.41669 16.375V4.75642C5.41669 4.38128 5.5462 4.0642 5.80523 3.80517C6.06426 3.54614 6.38134 3.41663 6.75648 3.41663H13.2436C13.6187 3.41663 13.9358 3.54614 14.1948 3.80517C14.4538 4.0642 14.5834 4.38128 14.5834 4.75642V16.375L10 14.5512L5.41669 16.375ZM6.50002 14.7708L10 13.375L13.5 14.7708V4.75642C13.5 4.69225 13.4733 4.6335 13.4198 4.58017C13.3665 4.52669 13.3077 4.49996 13.2436 4.49996H6.75648C6.69231 4.49996 6.63356 4.52669 6.58023 4.58017C6.52676 4.6335 6.50002 4.69225 6.50002 4.75642V14.7708Z" fill="#6F6F6F"/>
</svg>
