<svg width="24" height="24" viewBox="0 0 24 24" fill="none" xmlns="http://www.w3.org/2000/svg">
<path d="M12 2C17.523 2 22 6.477 22 12V19C22 19.7956 21.6839 20.5587 21.1213 21.1213C20.5587 21.6839 19.7956 22 19 22H12.5V17.613C12.5 16.612 12.561 15.575 13.086 14.723C13.4618 14.1124 13.9646 13.5898 14.5602 13.1906C15.1558 12.7915 15.8303 12.5251 16.538 12.4095L16.7295 12.3785C16.8084 12.3515 16.8769 12.3005 16.9255 12.2326C16.974 12.1648 17.0001 12.0834 17.0001 12C17.0001 11.9166 16.974 11.8352 16.9255 11.7674C16.8769 11.6995 16.8084 11.6485 16.7295 11.6215L16.538 11.5905C15.504 11.4216 14.5493 10.9322 13.8085 10.1914C13.0677 9.45066 12.5784 8.49591 12.4095 7.462L12.3785 7.2705C12.3515 7.19155 12.3005 7.12302 12.2326 7.07449C12.1647 7.02596 12.0834 6.99987 12 6.99987C11.9165 6.99987 11.8352 7.02596 11.7673 7.07449C11.6994 7.12302 11.6484 7.19155 11.6215 7.2705L11.5905 7.462C11.4749 8.16964 11.2085 8.84414 10.8094 9.43976C10.4102 10.0354 9.88757 10.5382 9.27696 10.914C8.42496 11.439 7.38796 11.5 6.38696 11.5H2.01196C2.27346 6.2095 6.64496 2 12 2Z" fill="#161616"/>
<path d="M2 12.5H6.387C7.388 12.5 8.425 12.561 9.277 13.086C9.94299 13.4964 10.5036 14.057 10.914 14.723C11.439 15.575 11.5 16.612 11.5 17.613V22H5C4.20435 22 3.44129 21.6839 2.87868 21.1213C2.31607 20.5587 2 19.7956 2 19V12.5ZM22 3C22 3.26522 21.8946 3.51957 21.7071 3.70711C21.5196 3.89464 21.2652 4 21 4C20.7348 4 20.4804 3.89464 20.2929 3.70711C20.1054 3.51957 20 3.26522 20 3C20 2.73478 20.1054 2.48043 20.2929 2.29289C20.4804 2.10536 20.7348 2 21 2C21.2652 2 21.5196 2.10536 21.7071 2.29289C21.8946 2.48043 22 2.73478 22 3Z" fill="#161616"/>
</svg>
