<svg width="48" height="48" viewBox="0 0 48 48" fill="none" xmlns="http://www.w3.org/2000/svg">
<rect width="48" height="48" rx="6" fill="#FFF3D5"/>
<rect x="12.75" y="28.5" width="9" height="9" rx="1.125" fill="#161616"/>
<path d="M35.25 11.625C35.25 11.0037 34.7463 10.5 34.125 10.5H13.875C13.2537 10.5 12.75 11.0037 12.75 11.625V19.034C12.75 19.3324 12.8685 19.6185 13.0795 19.8295L21.4205 28.1705C21.6315 28.3815 21.9176 28.5 22.216 28.5H27.375C27.9963 28.5 28.5 27.9963 28.5 27.375V22.875C28.5 22.2537 27.9963 21.75 27.375 21.75H22.875C22.2537 21.75 21.75 21.2463 21.75 20.625V20.625C21.75 20.0037 22.2537 19.5 22.875 19.5H34.125C34.7463 19.5 35.25 18.9963 35.25 18.375V11.625Z" fill="#161616"/>
</svg>