<svg width="48" height="48" viewBox="0 0 48 48" fill="none" xmlns="http://www.w3.org/2000/svg">
<rect width="48" height="48" rx="6" fill="#FFF3D5"/>
<rect x="12.5" y="29.3" width="8.6" height="8.6" rx="0.7" stroke="#161616"/>
<path d="M13.2 10.1H34.8C35.1866 10.1 35.5 10.4134 35.5 10.8V18C35.5 18.3866 35.1866 18.7 34.8 18.7H22.8C21.8611 18.7 21.1 19.4611 21.1 20.4C21.1 21.3389 21.8611 22.1 22.8 22.1H27.6C27.9866 22.1 28.3 22.4134 28.3 22.8V27.6C28.3 27.9866 27.9866 28.3 27.6 28.3H22.0971C21.9114 28.3 21.7334 28.2262 21.6021 28.095L12.705 19.1979C12.5737 19.0666 12.5 18.8886 12.5 18.7029V10.8C12.5 10.4134 12.8134 10.1 13.2 10.1Z" stroke="#161616"/>
</svg>