<svg width="48" height="48" viewBox="0 0 48 48" fill="none" xmlns="http://www.w3.org/2000/svg">
<rect x="14" y="28" width="8" height="8" rx="1" fill="#161616"/>
<path d="M34 13C34 12.4477 33.5523 12 33 12H15C14.4477 12 14 12.4477 14 13V19.5858C14 19.851 14.1054 20.1054 14.2929 20.2929L21.7071 27.7071C21.8946 27.8946 22.149 28 22.4142 28H27C27.5523 28 28 27.5523 28 27V23C28 22.4477 27.5523 22 27 22H23C22.4477 22 22 21.5523 22 21V21C22 20.4477 22.4477 20 23 20H33C33.5523 20 34 19.5523 34 19V13Z" fill="#161616"/>
</svg>